<?xml version="1.0" encoding="UTF-8"?>
<svg width="63px" height="86px" viewBox="0 0 63 86" version="1.1" xmlns="http://www.w3.org/2000/svg" xmlns:xlink="http://www.w3.org/1999/xlink">
    <title>ai / ai-creativity</title>
    <defs>
        <circle id="path-1" cx="15.9493449" cy="54.4512362" r="3"></circle>
        <circle id="path-2" cx="16.9987336" cy="13.5390549" r="3"></circle>
        <circle id="path-3" cx="30.6441478" cy="33.8746286" r="3"></circle>
        <circle id="path-4" cx="57.8488953" cy="27.1156625" r="3"></circle>
    </defs>
    <g id="Page-1" stroke="none" stroke-width="1" fill="none" fill-rule="evenodd">
        <g id="Dark-Previews-8" transform="translate(-96.000000, -1922.000000)">
            <g id="ai-/-ai-creativity" transform="translate(97.000000, 1923.000000)">
                <path d="M30.6180004,64.6385311 C24.237096,64.5727349 20.308576,63.9621266 18.8324404,62.8067061 C17.5187352,61.7784252 17.1270231,60.0195873 16.648429,57.7811864" id="Path" stroke="currentColor" stroke-linecap="round" stroke-linejoin="round"></path>
                <path d="M14.610249,51.2441543 C12.2663256,46.6580685 6.78083505,40.5201906 4.94249595,34.7932365 C4.50788139,33.4392873 4.1638279,32.0429293 3.91212101,30.6349645" id="Path" stroke="currentColor" stroke-linecap="round" stroke-linejoin="round"></path>
                <path d="M3.42651239,23.7551837 C3.53901057,21.0042141 4.03944809,18.4115165 4.94249595,16.23018 C7.02642941,11.1963825 12.1130956,0 30.6180004,0" id="Path" stroke="currentColor" stroke-linecap="round" stroke-linejoin="round"></path>
                <path d="M43.0920006,62.6147258 L43.0920006,66.5964443 C43.0920006,67.9999988 41.5688733,69.1378045 39.6900005,69.1378045 L21.5460003,69.1378045 C19.6671275,69.1378045 18.1440002,67.9999988 18.1440002,66.5964443 L18.1440002,64.055084 L18.1440002,62.3338044" id="Path" stroke="currentColor" stroke-linecap="round" stroke-linejoin="round"></path>
                <path d="M43.0920006,67.1507259 L43.0920006,71.1324443 C43.0920006,72.5359988 41.5688733,73.6738046 39.6900005,73.6738046 L21.5460003,73.6738046 C19.6671275,73.6738046 18.1440002,72.5359988 18.1440002,71.1324443 L18.1440002,68.5910841 L18.1440002,66.8698045" id="Path" stroke="currentColor" stroke-linecap="round" stroke-linejoin="round"></path>
                <path d="M43.0920006,71.6867259 L43.0920006,75.6684444 C43.0920006,77.0719989 41.5688733,78.2098046 39.6900005,78.2098046 L21.5460003,78.2098046 C19.6671275,78.2098046 18.1440002,77.0719989 18.1440002,75.6684444 L18.1440002,73.1270841 L18.1440002,71.4058045" id="Path" stroke="currentColor" stroke-linecap="round" stroke-linejoin="round"></path>
                <path d="M30.6180004,64.6380009 C36.9273034,64.8547938 40.8200227,64.3854801 42.2961583,63.2300595 C43.6234378,62.1911536 44.0481646,60.254393 44.5645441,57.8610088" id="Path" stroke="currentColor" stroke-linecap="round" stroke-linejoin="round"></path>
                <path d="M46.6572882,51.1827238 C49.0185145,46.6033479 54.4633616,40.4946582 56.2935049,34.7932365 C56.7259409,33.4460739 57.0687215,32.0569266 57.3200878,30.6561356" id="Path" stroke="currentColor" stroke-linecap="round" stroke-linejoin="round"></path>
                <path d="M57.8092088,23.7483656 C57.6961631,20.9999303 57.1958066,18.4097143 56.2935049,16.23018 L55.9570924,15.4310609 C53.6673592,10.1047352 48.19766,0 30.6180004,0" id="Path" stroke="currentColor" stroke-linecap="round" stroke-linejoin="round"></path>
                <path d="M21.7391455,78.246001 C23.1497949,82.0260011 26.1232576,83.9160011 30.6595337,83.9160011 C35.1958097,83.9160011 38.2703471,82.0260011 39.8831457,78.246001" id="Path-1073" stroke="currentColor" stroke-linecap="round" stroke-linejoin="round"></path>
                <circle id="Oval" stroke="currentColor" stroke-linecap="round" stroke-linejoin="round" cx="3.40200018" cy="27.2160013" r="3.40200018"></circle>
                <circle id="Oval" stroke="currentColor" stroke-linecap="round" stroke-linejoin="round" cx="17.0100008" cy="27.2160013" r="3.40200018"></circle>
                <circle id="Oval" stroke="currentColor" stroke-linecap="round" stroke-linejoin="round" cx="17.0100008" cy="40.824002" r="3.40200018"></circle>
                <circle id="Oval" stroke="currentColor" stroke-linecap="round" stroke-linejoin="round" cx="30.6180015" cy="20.4120009" r="3.40200018"></circle>
                <circle id="Oval" stroke="currentColor" stroke-linecap="round" stroke-linejoin="round" cx="30.6180015" cy="6.80400023" r="3.40200018"></circle>
                <circle id="Oval" stroke="currentColor" stroke-linecap="round" stroke-linejoin="round" cx="30.6180015" cy="47.6280024" r="3.40200018"></circle>
                <line x1="5.23315147" y1="24.3759855" x2="14.5857704" y2="16.032231" id="Path" stroke="currentColor" stroke-linecap="round" stroke-linejoin="round"></line>
                <line x1="6.80400036" y1="27.2160013" x2="13.6080006" y2="27.2160013" id="Path" stroke="currentColor" stroke-linecap="round" stroke-linejoin="round"></line>
                <line x1="5.54903295" y1="30.0602374" x2="14.5993135" y2="38.4133147" id="Path" stroke="currentColor" stroke-linecap="round" stroke-linejoin="round"></line>
                <line x1="20.079778" y1="12.073112" x2="27.5554331" y2="8.33528444" id="Path" stroke="currentColor" stroke-linecap="round" stroke-linejoin="round"></line>
                <line x1="28.7228969" y1="9.64665709" x2="18.9033446" y2="24.3759855" id="Path" stroke="currentColor" stroke-linecap="round" stroke-linejoin="round"></line>
                <line x1="27.5745735" y1="18.8902869" x2="20.0687299" y2="15.1373652" id="Path" stroke="currentColor" stroke-linecap="round" stroke-linejoin="round"></line>
                <line x1="27.5647547" y1="21.9386243" x2="20.0647321" y2="25.6886356" id="Path" stroke="currentColor" stroke-linecap="round" stroke-linejoin="round"></line>
                <line x1="27.5683818" y1="32.4951918" x2="20.0742261" y2="28.748114" id="Path" stroke="currentColor" stroke-linecap="round" stroke-linejoin="round"></line>
                <line x1="27.5750991" y1="46.1065512" x2="20.0693958" y2="42.3536996" id="Path" stroke="currentColor" stroke-linecap="round" stroke-linejoin="round"></line>
                <line x1="28.7227065" y1="44.7850599" x2="18.9061582" y2="30.0602374" id="Path" stroke="currentColor" stroke-linecap="round" stroke-linejoin="round"></line>
                <path d="M45.3600007,57.834001 C43.4811279,57.834001 41.9580006,56.3108737 41.9580006,54.4320009 C41.9580006,52.553128 43.4811279,51.0300007 45.3600007,51.0300007 C47.2388736,51.0300007 48.7620009,52.553128 48.7620009,54.4320009 C48.7620009,56.3108737 47.2388736,57.834001 45.3600007,57.834001 Z" id="Oval" stroke="currentColor" stroke-linecap="round" stroke-linejoin="round"></path>
                <path d="M44.226,30.6180015 C42.3471272,30.6180015 40.8239999,29.0948741 40.8239999,27.2160013 C40.8239999,25.3371285 42.3471272,23.8140011 44.226,23.8140011 C46.1048729,23.8140011 47.6280002,25.3371285 47.6280002,27.2160013 C47.6280002,29.0948741 46.1048729,30.6180015 44.226,30.6180015 Z" id="Oval" stroke="currentColor" stroke-linecap="round" stroke-linejoin="round"></path>
                <path d="M44.226,17.0100008 C42.3471272,17.0100008 40.8239999,15.4868734 40.8239999,13.6080006 C40.8239999,11.7291278 42.3471272,10.2060004 44.226,10.2060004 C46.1048729,10.2060004 47.6280002,11.7291278 47.6280002,13.6080006 C47.6280002,15.4868734 46.1048729,17.0100008 44.226,17.0100008 Z" id="Oval" stroke="currentColor" stroke-linecap="round" stroke-linejoin="round"></path>
                <path d="M44.226,44.2260022 C42.3471272,44.2260022 40.8239999,42.7028748 40.8239999,40.824002 C40.8239999,38.9451292 42.3471272,37.4220018 44.226,37.4220018 C46.1048729,37.4220018 47.6280002,38.9451292 47.6280002,40.824002 C47.6280002,42.7028748 46.1048729,44.2260022 44.226,44.2260022 Z" id="Oval" stroke="currentColor" stroke-linecap="round" stroke-linejoin="round"></path>
                <line x1="55.4412442" y1="24.3759855" x2="46.6502304" y2="16.032231" id="Path" stroke="currentColor" stroke-linecap="round" stroke-linejoin="round"></line>
                <line x1="54.4320007" y1="27.2160013" x2="47.7251306" y2="27.2160013" id="Path" stroke="currentColor" stroke-linecap="round" stroke-linejoin="round"></line>
                <line x1="55.4412442" y1="29.7206803" x2="46.6366873" y2="38.4133147" id="Path" stroke="currentColor" stroke-linecap="round" stroke-linejoin="round"></line>
                <line x1="41.1562228" y1="12.073112" x2="33.6805678" y2="8.33528444" id="Path" stroke="currentColor" stroke-linecap="round" stroke-linejoin="round"></line>
                <line x1="32.5131039" y1="9.64665709" x2="42.3326562" y2="24.3759855" id="Path" stroke="currentColor" stroke-linecap="round" stroke-linejoin="round"></line>
                <line x1="33.6614274" y1="18.8902869" x2="41.1672709" y2="15.1373652" id="Path" stroke="currentColor" stroke-linecap="round" stroke-linejoin="round"></line>
                <line x1="33.6712461" y1="21.9386243" x2="41.1712687" y2="25.6886356" id="Path" stroke="currentColor" stroke-linecap="round" stroke-linejoin="round"></line>
                <line x1="33.6676191" y1="32.4951918" x2="41.1617747" y2="28.748114" id="Path" stroke="currentColor" stroke-linecap="round" stroke-linejoin="round"></line>
                <line x1="33.6609017" y1="46.1065512" x2="41.166605" y2="42.3536996" id="Path" stroke="currentColor" stroke-linecap="round" stroke-linejoin="round"></line>
                <line x1="32.5132943" y1="44.7850599" x2="42.3298427" y2="30.0602374" id="Path" stroke="currentColor" stroke-linecap="round" stroke-linejoin="round"></line>
                <line x1="33.6609017" y1="49.1747763" x2="42.1300666" y2="52.9206638" id="Path" stroke="currentColor" stroke-linecap="round" stroke-linejoin="round"></line>
                <line x1="27.5647547" y1="49.1747763" x2="19.0815697" y2="52.9313508" id="Path" stroke="currentColor" stroke-linecap="round" stroke-linejoin="round"></line>
                <line x1="44.5645441" y1="44.2301254" x2="45.1529827" y2="51.0300026" id="Path-1072" stroke="currentColor" stroke-linecap="round" stroke-linejoin="round"></line>
                <line x1="16.648429" y1="44.2260022" x2="16.2622147" y2="51.0300007" id="Path-1079" stroke="currentColor" stroke-linecap="round" stroke-linejoin="round"></line>
                <g id="nucleus" transform="translate(15.949345, 54.451236) rotate(-90.000000) translate(-15.949345, -54.451236) " stroke="currentColor">
                    <circle stroke-width="1.5" stroke-linejoin="round" fill="#818181" fill-rule="evenodd" cx="15.9493449" cy="54.4512362" r="2.25"></circle>
                    <use stroke-width="1" xlink:href="#path-1"></use>
                </g>
                <g id="nucleus" transform="translate(16.998734, 13.539055) rotate(-90.000000) translate(-16.998734, -13.539055) " stroke="currentColor">
                    <circle stroke-width="1.5" stroke-linejoin="round" fill="#818181" fill-rule="evenodd" cx="16.9987336" cy="13.5390549" r="2.25"></circle>
                    <use stroke-width="1" xlink:href="#path-2"></use>
                </g>
                <g id="nucleus" transform="translate(30.644148, 33.874629) rotate(-90.000000) translate(-30.644148, -33.874629) " stroke="currentColor">
                    <circle stroke-width="1.5" stroke-linejoin="round" fill="#818181" fill-rule="evenodd" cx="30.6441478" cy="33.8746286" r="2.25"></circle>
                    <use stroke-width="1" xlink:href="#path-3"></use>
                </g>
                <g id="nucleus" transform="translate(57.848895, 27.115663) rotate(-90.000000) translate(-57.848895, -27.115663) " stroke="currentColor">
                    <circle stroke-width="1.5" stroke-linejoin="round" fill="#818181" fill-rule="evenodd" cx="57.8488953" cy="27.1156625" r="2.25"></circle>
                    <use stroke-width="1" xlink:href="#path-4"></use>
                </g>
            </g>
        </g>
    </g>
</svg>