<svg width="512" height="512" viewBox="0 0 512 512" fill="none" xmlns="http://www.w3.org/2000/svg">
<path d="M405.956 183.299C400.913 181.626 395.991 180.073 390.948 178.639C391.789 175.173 392.509 171.827 393.229 168.361C404.635 113.389 397.071 69.2922 371.859 54.7127C347.486 40.8502 307.746 55.3102 267.646 90.086C263.684 93.5516 259.722 97.1368 256.12 100.722C253.599 98.3318 251.077 95.9417 248.436 93.6711C206.295 56.3857 164.033 40.7307 138.821 55.4297C114.568 69.4117 107.365 110.999 117.57 162.984C118.53 168.122 119.731 173.261 121.052 178.4C115.169 180.073 109.286 181.865 103.883 183.777C54.4179 200.867 19 227.755 19 255.6C19 284.4 56.8191 313.201 108.205 330.768C112.407 332.202 116.489 333.517 120.812 334.712C119.371 340.209 118.17 345.706 117.09 351.323C107.365 402.471 114.929 442.983 139.181 456.965C164.153 471.305 206.175 456.606 247.115 420.874C250.357 418.006 253.599 415.019 256.84 411.911C260.922 415.855 265.125 419.679 269.447 423.384C309.067 457.323 348.207 471.066 372.459 457.084C397.432 442.744 405.596 399.124 395.03 346.065C394.19 342.001 393.229 337.819 392.269 333.636C395.27 332.8 398.152 331.844 400.913 331.007C454.34 313.44 493 284.878 493 255.719C492.76 227.636 456.381 200.508 405.956 183.299ZM280.732 105.024C315.19 75.1479 347.246 63.4365 361.894 71.8018C377.501 80.7646 383.505 116.855 373.78 164.298C373.179 167.405 372.459 170.512 371.619 173.5C351.088 168.839 330.198 165.613 309.307 163.701C297.301 146.612 284.094 130.12 269.807 114.823C273.529 111.477 277.011 108.251 280.732 105.024ZM173.518 303.282C178.201 311.289 183.003 319.296 188.166 327.183C173.758 325.629 159.351 323.359 145.184 320.252C149.266 306.987 154.309 293.244 160.312 279.262C164.634 287.388 168.956 295.395 173.518 303.282ZM145.544 192.501C158.871 189.514 173.038 187.124 187.805 185.331C182.883 192.979 178.081 200.867 173.518 208.754C168.956 216.641 164.514 224.648 160.312 232.774C154.549 218.912 149.626 205.408 145.544 192.501ZM170.877 255.958C177 243.291 183.603 230.743 190.687 218.553C197.771 206.364 205.334 194.413 213.258 182.702C227.185 181.746 241.353 181.148 255.76 181.148C270.167 181.148 284.454 181.746 298.261 182.702C306.185 194.294 313.629 206.244 320.713 218.314C327.796 230.504 334.52 242.932 340.763 255.6C334.52 268.267 327.916 280.815 320.713 293.244C313.629 305.553 306.185 317.383 298.261 329.214C284.454 330.17 270.167 330.648 255.52 330.648C240.872 330.648 226.945 330.17 213.258 329.334C205.214 317.622 197.65 305.672 190.447 293.363C183.603 281.174 177.12 268.626 170.877 255.958ZM338.122 303.162C342.804 295.036 347.246 286.91 351.688 278.545C357.571 291.929 362.854 305.433 367.296 319.415C352.889 322.642 338.362 325.151 323.834 326.824C328.757 319.057 333.439 311.05 338.122 303.162ZM351.448 232.655C347.126 224.528 342.684 216.402 338.002 208.515C333.439 200.628 328.757 192.979 323.834 185.331C338.722 187.124 353.009 189.633 366.336 192.74C362.134 206.244 357.091 219.509 351.448 232.655ZM256 128.925C265.725 139.441 274.85 150.436 283.374 161.908C265.005 161.072 246.635 161.072 228.266 161.908C237.391 150.077 246.755 138.963 256 128.925ZM148.546 72.5188C164.153 63.4365 198.611 76.343 234.989 108.49C237.27 110.521 239.672 112.672 242.073 114.943C227.666 130.359 214.459 146.731 202.333 163.82C181.442 165.613 160.672 168.839 140.141 173.381C138.941 168.72 137.86 163.94 136.9 159.04C128.255 114.465 133.898 80.8842 148.546 72.5188ZM125.854 315.352C122.012 314.276 118.17 313.081 114.328 311.767C94.6383 305.553 72.1869 295.873 55.9787 282.966C46.614 276.513 40.3708 266.594 38.5699 255.361C38.5699 238.511 67.8647 216.88 110.006 202.301C115.289 200.508 120.691 198.835 125.974 197.281C132.217 217.239 139.901 236.957 148.666 255.839C139.901 275.198 132.217 295.156 125.854 315.352ZM233.789 405.697C218.541 419.56 200.772 430.674 181.562 438.202C171.237 443.102 159.471 443.58 148.906 439.397C134.138 430.913 128.015 398.407 136.419 354.669C137.38 349.53 138.581 344.391 139.901 339.253C160.672 343.674 181.562 346.662 202.813 348.335C215.059 365.544 228.506 382.035 242.793 397.571C239.792 400.32 236.79 403.188 233.789 405.697ZM256.48 383.35C246.995 373.192 237.631 361.959 228.386 349.889C237.271 350.247 246.395 350.486 255.64 350.486C265.125 350.486 274.489 350.247 283.734 349.889C275.45 361.481 266.205 372.595 256.48 383.35ZM377.502 410.955C376.661 422.189 371.138 432.705 362.254 439.756C347.486 448.241 316.15 437.127 282.293 408.207C278.451 404.861 274.489 401.276 270.527 397.571C284.695 382.035 297.781 365.544 309.547 348.216C330.798 346.423 351.808 343.196 372.699 338.536C373.66 342.36 374.5 346.065 375.22 349.769C379.783 369.726 380.503 390.52 377.502 410.955ZM394.43 311.886C391.789 312.723 389.267 313.559 386.506 314.276C380.023 294.2 372.099 274.601 362.854 255.48C371.739 236.718 379.182 217.358 385.546 197.52C390.348 198.955 395.03 200.389 399.473 201.823C442.574 216.522 472.95 238.511 472.95 255.241C472.95 273.406 440.653 296.709 394.43 311.886Z" fill="url(#paint0_diamond_201_5)"/>
<path d="M390.349 178.988L390.462 178.521C391.301 175.063 392.02 171.723 392.74 168.26C398.434 140.816 399.386 116.116 395.784 96.4801C392.181 76.8364 384.038 62.3341 371.611 55.1468C359.599 48.3152 343.736 48.4282 325.814 54.6325C307.898 60.8346 287.992 73.103 267.974 90.4635C264.016 93.9257 260.063 97.5025 256.473 101.076L256.129 101.419L255.776 101.085C253.253 98.6933 250.741 96.3116 248.11 94.0503L248.105 94.0456C227.066 75.4309 206.02 62.2368 187.113 55.5275C168.198 48.815 151.5 48.6167 139.072 55.8617L139.07 55.8629C127.12 62.7525 119.307 76.4815 115.765 95.0495C112.224 113.611 112.966 136.936 118.061 162.887L118.061 162.892C119.019 168.016 120.217 173.143 121.536 178.275L121.657 178.747L121.188 178.881C115.311 180.552 109.439 182.342 104.05 184.249L104.046 184.25C79.3495 192.782 58.187 203.752 43.2093 216.042C28.22 228.341 19.5 241.897 19.5 255.6C19.5 269.777 28.8163 284.05 44.6495 297.009C60.4684 309.957 82.7117 321.524 108.367 330.295L390.349 178.988ZM390.349 178.988L390.812 179.12M390.349 178.988L390.812 179.12M390.812 179.12C395.844 180.551 400.759 182.102 405.797 183.773C430.973 192.366 452.616 203.425 467.984 215.82C483.363 228.225 492.38 241.9 492.5 255.72C492.5 270.072 482.978 284.374 466.681 297.319C450.399 310.251 427.438 321.759 400.763 330.53C399.809 330.819 398.846 331.121 397.871 331.426C396.007 332.009 394.101 332.606 392.135 333.154L391.675 333.283L391.782 333.748C392.742 337.931 393.701 342.108 394.54 346.165C399.814 372.649 400.407 396.749 396.581 415.997C392.754 435.254 384.521 449.581 372.21 456.651L372.209 456.651C360.254 463.544 344.569 463.636 326.874 457.73C309.184 451.826 289.55 439.946 269.772 423.004C265.458 419.306 261.263 415.489 257.188 411.552L256.842 411.218M390.812 179.12L256.842 411.218M256.842 411.218L256.494 411.551M256.842 411.218L256.494 411.551M256.494 411.551C253.258 414.653 250.022 417.635 246.786 420.499C226.35 438.334 205.665 450.901 187 457.223C168.325 463.548 151.742 463.601 139.43 456.531L256.494 411.551ZM362.143 71.3682L362.142 71.3676C354.609 67.0659 342.741 67.9784 328.557 73.6077C314.339 79.2505 297.664 89.6823 280.405 104.646C277.836 106.873 275.379 109.102 272.884 111.366C271.759 112.387 270.627 113.414 269.473 114.452L269.094 114.792L269.442 115.165C283.712 130.443 296.904 146.916 308.898 163.988L309.031 164.178L309.261 164.199C330.131 166.109 351 169.332 371.508 173.988L371.971 174.093L372.1 173.635C372.944 170.634 373.667 167.514 374.27 164.397C379.14 140.636 380.078 119.695 377.832 103.551C375.591 87.4449 370.159 75.9717 362.143 71.3682ZM173.95 303.03C169.393 295.151 165.074 287.151 160.753 279.027L160.263 278.106L159.852 279.064C153.842 293.062 148.794 306.822 144.706 320.105L144.546 320.624L145.077 320.74C159.263 323.851 173.689 326.125 188.112 327.68L189.163 327.793L188.584 326.909C183.428 319.032 178.631 311.034 173.95 303.03ZM145.435 192.013L144.903 192.133L145.067 192.652C149.154 205.573 154.082 219.091 159.85 232.966L160.262 233.958L160.756 233.004C164.953 224.886 169.392 216.886 173.951 209.004C178.51 201.123 183.308 193.243 188.226 185.602L188.802 184.706L187.745 184.835C172.963 186.629 158.779 189.022 145.435 192.013ZM170.427 255.741L170.321 255.96L170.428 256.179C176.674 268.852 183.162 281.408 190.011 293.608L190.015 293.616C197.225 305.935 204.795 317.895 212.846 329.617L212.984 329.818L213.228 329.833C226.924 330.67 240.861 331.148 255.52 331.148C270.178 331.148 284.477 330.67 298.296 329.713L298.54 329.696L298.677 329.493C306.606 317.654 314.056 305.813 321.146 293.493C328.356 281.053 334.965 268.496 341.211 255.821L341.32 255.6L341.211 255.379C334.963 242.7 328.234 230.261 321.145 218.063L321.144 218.061C314.056 205.984 306.606 194.023 298.674 182.42L298.538 182.22L298.296 182.203C284.48 181.246 270.181 180.648 255.76 180.648C241.339 180.648 227.16 181.246 213.224 182.203L212.981 182.22L212.844 182.422C204.915 194.142 197.345 206.102 190.255 218.302C183.164 230.504 176.555 243.063 170.427 255.741ZM352.146 278.343L351.731 277.398L351.247 278.31C346.807 286.671 342.368 294.791 337.69 302.911C336.957 304.144 336.225 305.38 335.492 306.618C331.537 313.296 327.56 320.011 323.412 326.557L322.852 327.441L323.892 327.321C338.438 325.646 352.982 323.133 367.406 319.903L367.938 319.784L367.773 319.264C363.324 305.261 358.035 291.74 352.146 278.343ZM351.007 232.89L351.496 233.81L351.908 232.852C357.556 219.694 362.605 206.412 366.813 192.889L366.973 192.375L366.449 192.253C353.104 189.142 338.799 186.629 323.894 184.835L322.838 184.708L323.414 185.602C328.332 193.244 333.011 200.885 337.569 208.765L337.572 208.77C342.248 216.648 346.686 224.766 351.007 232.89ZM256.367 128.585L255.999 128.188L255.632 128.586C246.377 138.636 237.003 149.761 227.87 161.603L227.211 162.457L228.289 162.408C246.643 161.572 264.997 161.572 283.351 162.408L284.404 162.456L283.775 161.61C275.24 150.123 266.104 139.115 256.367 128.585ZM235.322 108.116L235.32 108.115C217.101 92.015 199.345 80.7161 184.166 74.5798C169.024 68.4584 156.312 67.4223 148.296 72.0856C140.761 76.3901 135.659 87.0852 133.493 102.13C131.322 117.212 132.079 136.81 136.409 159.135L136.409 159.136C137.371 164.045 138.454 168.835 139.657 173.505L139.778 173.973L140.249 173.869C160.759 169.332 181.508 166.109 202.376 164.318L202.606 164.299L202.741 164.11C214.855 147.037 228.047 130.683 242.438 115.284L242.778 114.921L242.416 114.58C240.009 112.303 237.603 110.148 235.322 108.116ZM125.719 315.833L126.185 315.964L126.331 315.502C132.688 295.326 140.365 275.387 149.121 256.045L149.216 255.836L149.119 255.628C140.364 236.766 132.688 217.068 126.451 197.132L126.305 196.663L125.833 196.802C120.546 198.357 115.136 200.032 109.845 201.827L109.843 201.828C88.7384 209.13 70.8303 218.203 58.1872 227.578C51.866 232.265 46.8465 237.038 43.403 241.715C39.9619 246.39 38.0699 251.004 38.0699 255.361V255.4L38.0762 255.44C39.8977 266.802 46.2109 276.837 55.6807 283.368C71.9549 296.322 94.4622 306.021 114.171 312.242C118.02 313.558 121.87 314.756 125.719 315.833ZM148.657 439.831L148.688 439.849L148.722 439.862C159.414 444.095 171.317 443.612 181.761 438.662C201.019 431.112 218.832 419.97 234.118 406.074C236.377 404.185 238.639 402.091 240.89 400.007C241.638 399.314 242.385 398.622 243.131 397.94L243.501 397.601L243.161 397.232C228.888 381.712 215.454 365.236 203.22 348.045L203.085 347.855L202.852 347.837C181.623 346.165 160.754 343.181 140.005 338.764L139.536 338.664L139.417 339.128C138.095 344.273 136.892 349.422 135.928 354.574C131.719 376.484 131.142 395.605 133.479 410.332C135.812 425.027 141.07 435.472 148.657 439.831ZM256.115 383.691L256.486 384.089L256.851 383.685C266.585 372.92 275.843 361.791 284.141 350.179L284.734 349.35L283.715 349.389C274.474 349.747 265.116 349.986 255.64 349.986C246.404 349.986 237.286 349.747 228.406 349.389L227.341 349.346L227.989 350.193C237.242 362.273 246.617 373.519 256.115 383.691ZM362.503 440.19L362.535 440.171L362.565 440.148C371.555 433.013 377.144 422.375 377.999 411.01C381.006 390.524 380.283 369.677 375.71 349.666C374.988 345.954 374.146 342.243 373.184 338.414L373.065 337.942L372.59 338.048C351.721 342.704 330.733 345.927 309.505 347.717L309.267 347.737L309.133 347.935C297.381 365.242 284.31 381.715 270.158 397.234L269.825 397.599L270.186 397.936C274.152 401.644 278.118 405.233 281.965 408.584L281.969 408.587C298.927 423.073 315.274 433.116 329.253 438.475C343.202 443.822 354.916 444.549 362.503 440.19ZM394.581 312.363L394.586 312.361C417.732 304.761 437.412 295.121 451.316 285.09C458.268 280.074 463.791 274.95 467.581 269.922C471.367 264.897 473.45 259.93 473.45 255.241C473.45 250.908 471.486 246.292 467.929 241.601C464.368 236.906 459.184 232.096 452.668 227.365C439.636 217.903 421.218 208.71 399.634 201.349L399.626 201.347C395.179 199.911 390.493 198.476 385.689 197.041L385.219 196.901L385.069 197.368C378.712 217.188 371.276 236.527 362.402 255.266L362.3 255.482L362.404 255.698C371.639 274.799 379.554 294.376 386.03 314.43L386.175 314.879L386.632 314.76C388.957 314.157 391.114 313.468 393.299 312.771C393.725 312.635 394.152 312.499 394.581 312.363Z" stroke="#080808" stroke-opacity="0.14"/>
<path d="M217.658 212C220.177 212.094 222.324 213.029 224.097 214.806C225.87 216.49 226.803 218.595 226.896 221.121V260.973V289.879C226.336 295.492 223.257 298.532 217.658 299C215.045 299 212.759 298.158 210.799 296.474C208.933 294.697 208 292.498 208 289.879V221.121C208.093 218.502 209.073 216.35 210.939 214.666C212.806 212.889 215.045 212 217.658 212ZM241.593 236.697C247.845 232.487 256.29 228.231 266.928 223.927L289.883 214.105C290.91 213.637 292.029 213.356 293.242 213.263C295.855 213.076 298.095 213.871 299.961 215.648C301.827 217.332 302.76 219.531 302.76 222.244C302.76 225.331 302.107 227.623 300.801 229.119C299.588 230.523 298.001 231.692 296.042 232.627L276.446 240.065C272.62 241.561 268.981 243.058 265.528 244.555C262.169 245.958 259.089 247.595 256.29 249.466C253.491 251.15 251.998 253.068 251.811 255.219C251.998 257.277 253.491 259.195 256.29 260.973C259.089 262.844 262.169 264.527 265.528 266.024C268.981 267.427 272.62 268.877 276.446 270.374L298.281 278.373C300.241 279.308 301.827 280.524 303.04 282.021C304.347 283.424 305 285.669 305 288.756C305 291.469 304.067 293.715 302.201 295.492C300.334 297.176 298.095 297.924 295.482 297.737C294.269 297.644 293.149 297.363 292.123 296.895L266.928 286.511C256.29 282.208 247.798 277.952 241.453 273.742C235.201 269.439 232.028 263.265 231.935 255.219C232.028 247.174 235.248 241 241.593 236.697Z" fill="url(#paint1_linear_201_5)"/>
<path d="M301.179 229.447C302.598 227.82 303.26 225.387 303.26 222.244C303.26 219.404 302.278 217.068 300.301 215.282C298.332 213.409 295.955 212.567 293.207 212.764L293.204 212.764C291.939 212.862 290.764 213.155 289.681 213.647L266.74 223.464C266.739 223.465 266.737 223.465 266.736 223.466C256.083 227.775 247.605 232.046 241.314 236.282L241.312 236.283C234.824 240.683 231.53 247.014 231.435 255.214L231.435 255.214L231.435 255.225C231.53 263.421 234.775 269.752 241.17 274.154L241.17 274.154L241.177 274.159C247.56 278.393 256.084 282.664 266.738 286.974C266.739 286.974 266.74 286.974 266.74 286.975L291.924 297.354C293.005 297.846 294.18 298.138 295.444 298.236L295.446 298.236C298.188 298.432 300.564 297.642 302.536 295.863L302.536 295.863L302.545 295.854C304.516 293.977 305.5 291.598 305.5 288.756C305.5 285.625 304.842 283.232 303.418 281.693C302.154 280.138 300.509 278.882 298.497 277.921L298.476 277.911L298.453 277.903L276.623 269.907C272.804 268.412 269.171 266.965 265.724 265.564C262.391 264.079 259.34 262.409 256.568 260.557L256.568 260.557L256.558 260.55C253.832 258.82 252.496 257.032 252.313 255.218C252.496 253.312 253.833 251.527 256.548 249.895L256.558 249.888L256.568 249.882C259.338 248.03 262.389 246.408 265.721 245.016L265.721 245.016L265.727 245.014C269.173 243.52 272.806 242.026 276.626 240.531C276.626 240.531 276.627 240.53 276.628 240.53L296.219 233.095L296.239 233.088L296.257 233.079C298.268 232.119 299.913 230.91 301.179 229.447ZM301.179 229.447C301.179 229.447 301.179 229.447 301.179 229.446L300.801 229.119L301.178 229.448C301.178 229.448 301.178 229.447 301.179 229.447ZM217.677 211.5L217.667 211.5H217.658C214.921 211.5 212.559 212.435 210.599 214.299C208.631 216.078 207.598 218.357 207.5 221.103L207.5 221.112V221.121V289.879C207.5 292.633 208.487 294.963 210.455 296.836L210.464 296.845L210.474 296.853C212.525 298.616 214.927 299.5 217.658 299.5H217.679L217.7 299.498C220.58 299.258 222.873 298.349 224.518 296.725C226.163 295.101 227.106 292.815 227.394 289.929L227.396 289.904V289.879V260.973V221.121V221.112L227.396 221.103C227.298 218.453 226.314 216.225 224.446 214.449C222.584 212.584 220.32 211.598 217.677 211.5Z" stroke="#080808" stroke-opacity="0.18"/>
<defs>
<radialGradient id="paint0_diamond_201_5" cx="0" cy="0" r="1" gradientUnits="userSpaceOnUse" gradientTransform="translate(259.122 238.75) rotate(51.9842) scale(256.349 293.18)">
<stop stop-color="white"/>
<stop offset="0.757885" stop-color="#A5C1E2"/>
<stop offset="1" stop-color="#D3EFFC"/>
</radialGradient>
<linearGradient id="paint1_linear_201_5" x1="256" y1="250.5" x2="256.5" y2="299" gradientUnits="userSpaceOnUse">
<stop stop-color="#A5C1E2"/>
<stop offset="1" stop-color="#D3EFFC"/>
</linearGradient>
</defs>
</svg>
